<?xml version="1.0" encoding="UTF-8" standalone="no"?>
<!DOCTYPE svg PUBLIC "-//W3C//DTD SVG 1.0//EN" "http://www.w3.org/TR/2001/PR-SVG-20010719/DTD/svg10.dtd">
<svg width="31cm" height="14cm" viewBox="277 -9 605 274" xmlns="http://www.w3.org/2000/svg" xmlns:xlink="http://www.w3.org/1999/xlink">
  <g>
    <ellipse style="fill: #ffffff" cx="822" cy="148" rx="6" ry="6"/>
    <ellipse style="fill: none; fill-opacity:0; stroke-width: 2; stroke: #000000" cx="822" cy="148" rx="6" ry="6"/>
    <line style="fill: none; fill-opacity:0; stroke-width: 2; stroke: #000000" x1="798" y1="160" x2="846" y2="160"/>
    <line style="fill: none; fill-opacity:0; stroke-width: 2; stroke: #000000" x1="822" y1="154" x2="822" y2="184"/>
    <line style="fill: none; fill-opacity:0; stroke-width: 2; stroke: #000000" x1="822" y1="184" x2="798" y2="210"/>
    <line style="fill: none; fill-opacity:0; stroke-width: 2; stroke: #000000" x1="822" y1="184" x2="846" y2="210"/>
    <text font-size="12.8" style="fill: #000000;text-anchor:middle;font-family:sans-serif;font-style:normal;font-weight:normal" x="822" y="233.9">
      <tspan x="822" y="233.9">John</tspan>
    </text>
  </g>
  <g>
    <polygon style="fill: #ffffff" points="278,2 288,-8 584,-8 584,254 574,264 278,264 278,2 "/>
    <polygon style="fill: none; fill-opacity:0; stroke-width: 2; stroke: #000000" points="278,2 288,-8 584,-8 584,254 574,264 278,264 278,2 "/>
    <line style="fill: none; fill-opacity:0; stroke-width: 2; stroke: #000000" x1="278" y1="2" x2="574" y2="2"/>
    <line style="fill: none; fill-opacity:0; stroke-width: 2; stroke: #000000" x1="574" y1="2" x2="584" y2="-8"/>
    <line style="fill: none; fill-opacity:0; stroke-width: 2; stroke: #000000" x1="574" y1="2" x2="574" y2="264"/>
    <text font-size="12.8" style="fill: #000000;text-anchor:start;font-family:sans-serif;font-style:normal;font-weight:normal" x="288" y="23.9">
      <tspan x="288" y="23.9">Server</tspan>
    </text>
    <line style="fill: none; fill-opacity:0; stroke-width: 1; stroke: #000000" x1="288" y1="26.9" x2="330.05" y2="26.9"/>
  </g>
  <g>
    <polygon style="fill: #ffffff" points="295,43 547.4,43 559.4,55 559.4,77 295,77 "/>
    <polygon style="fill: none; fill-opacity:0; stroke-width: 2; stroke: #000000" points="295,43 547.4,43 559.4,55 559.4,77 295,77 "/>
    <polyline style="fill: none; fill-opacity:0; stroke-width: 1; stroke: #000000" points="547.4,43 547.4,55 559.4,55 "/>
    <text font-size="12.8" style="fill: #000000;text-anchor:start;font-family:monospace;font-style:normal;font-weight:normal" x="302" y="67.9">
      <tspan x="302" y="67.9">All file in server are encrypted</tspan>
    </text>
  </g>
  <text font-size="12.8" style="fill: #000000;text-anchor:start;font-family:sans-serif;font-style:normal;font-weight:normal" x="426" y="133">
    <tspan x="426" y="133"></tspan>
  </text>
  <g>
    <rect style="fill: #ffffff" x="390" y="90" width="174" height="158"/>
    <rect style="fill: none; fill-opacity:0; stroke-width: 2; stroke: #000000" x="390" y="90" width="174" height="158"/>
  </g>
  <g>
    <rect style="fill: #ffffff" x="498" y="168" width="50.15" height="36"/>
    <rect style="fill: none; fill-opacity:0; stroke-width: 2; stroke: #000000" x="498" y="168" width="50.15" height="36"/>
    <text font-size="12.8" style="fill: #000000;text-anchor:middle;font-family:sans-serif;font-style:normal;font-weight:normal" x="523.075" y="189.9">
      <tspan x="523.075" y="189.9">FileA</tspan>
    </text>
    <line style="fill: none; fill-opacity:0; stroke-width: 1; stroke: #000000" x1="508" y1="192.9" x2="538.15" y2="192.9"/>
  </g>
  <text font-size="12.8" style="fill: #000000;text-anchor:start;font-family:sans-serif;font-style:normal;font-weight:normal" x="810" y="191">
    <tspan x="810" y="191"></tspan>
  </text>
  <text font-size="12.8" style="fill: #000000;text-anchor:start;font-family:sans-serif;font-style:normal;font-weight:normal" x="734" y="106">
    <tspan x="734" y="106"></tspan>
  </text>
  <text font-size="12.8" style="fill: #000000;text-anchor:start;font-family:sans-serif;font-style:normal;font-weight:normal" x="399" y="116">
    <tspan x="399" y="116">John's files</tspan>
  </text>
  <g>
    <polyline style="fill: none; fill-opacity:0; stroke-width: 2; stroke: #000000" points="548.15,186 548.15,184 796.026,184 "/>
    <text font-size="12.7998" style="fill: #000000;text-anchor:middle;font-family:monospace;font-style:normal;font-weight:normal" x="672.088" y="181">upload (encrypted)</text>
    <polygon style="fill: #000000" points="598.788,181 598.788,173 590.788,177 "/>
    <text font-size="12.7998" style="fill: #000000;text-anchor:start;font-family:monospace;font-style:normal;font-weight:normal" x="552.15" y="182"/>
    <text font-size="12.7998" style="fill: #000000;text-anchor:end;font-family:monospace;font-style:normal;font-weight:normal" x="792.026" y="181"/>
  </g>
  <g>
    <rect style="fill: #ffffff" x="497.6" y="108.3" width="50.2" height="36"/>
    <rect style="fill: none; fill-opacity:0; stroke-width: 2; stroke: #000000" x="497.6" y="108.3" width="50.2" height="36"/>
    <text font-size="12.8" style="fill: #000000;text-anchor:middle;font-family:sans-serif;font-style:normal;font-weight:normal" x="522.7" y="130.2">
      <tspan x="522.7" y="130.2">FileB</tspan>
    </text>
    <line style="fill: none; fill-opacity:0; stroke-width: 1; stroke: #000000" x1="507.6" y1="133.2" x2="537.8" y2="133.2"/>
  </g>
  <text font-size="12.8" style="fill: #000000;text-anchor:start;font-family:sans-serif;font-style:normal;font-weight:normal" x="522.7" y="126.3">
    <tspan x="522.7" y="126.3"></tspan>
  </text>
  <g>
    <polyline style="fill: none; fill-opacity:0; stroke-width: 2; stroke: #000000" points="547.8,126.3 547.8,130 797,130 797,130 "/>
    <text font-size="12.7998" style="fill: #000000;text-anchor:middle;font-family:monospace;font-style:normal;font-weight:normal" x="672.4" y="127">download (encrypted)</text>
    <polygon style="fill: #000000" points="751.4,127 751.4,119 759.4,123 "/>
    <text font-size="12.7998" style="fill: #000000;text-anchor:start;font-family:monospace;font-style:normal;font-weight:normal" x="551.8" y="138.3"/>
    <text font-size="12.7998" style="fill: #000000;text-anchor:end;font-family:monospace;font-style:normal;font-weight:normal" x="793" y="127"/>
  </g>
  <g>
    <polygon style="fill: #ffffff" points="670,30 868.5,30 880.5,42 880.5,80 670,80 "/>
    <polygon style="fill: none; fill-opacity:0; stroke-width: 2; stroke: #000000" points="670,30 868.5,30 880.5,42 880.5,80 670,80 "/>
    <polyline style="fill: none; fill-opacity:0; stroke-width: 1; stroke: #000000" points="868.5,30 868.5,42 880.5,42 "/>
    <text font-size="12.8" style="fill: #000000;text-anchor:start;font-family:monospace;font-style:normal;font-weight:normal" x="677" y="54.9">
      <tspan x="677" y="54.9">Files on John's computer </tspan>
      <tspan x="677" y="70.9">are encrypted</tspan>
    </text>
  </g>
</svg>
